<?xml version="1.0" encoding="iso-8859-1"?>
<!-- Generator: Adobe Illustrator 19.0.0, SVG Export Plug-In . SVG Version: 6.00 Build 0)  -->
<svg version="1.1" id="Capa_1" xmlns="http://www.w3.org/2000/svg" xmlns:xlink="http://www.w3.org/1999/xlink" x="0px" y="0px"
	 viewBox="0 0 511 511" style="enable-background:new 0 0 511 511;" xml:space="preserve">
<g>
	<path d="M495.5,320h-264c-13.509,0-24.5-10.991-24.5-24.5v-80c0-13.509,10.991-24.5,24.5-24.5h80c13.509,0,24.5,10.991,24.5,24.5v8
		c0,12.958,10.542,23.5,23.5,23.5H392v56.5c0,4.142,3.358,7.5,7.5,7.5s7.5-3.358,7.5-7.5V247h32.5c12.958,0,23.5-10.542,23.5-23.5
		v-96c0-21.78-17.72-39.5-39.5-39.5H407V71.5c0-4.142-3.358-7.5-7.5-7.5s-7.5,3.358-7.5,7.5V88H239V55.5c0-4.142-3.358-7.5-7.5-7.5
		s-7.5,3.358-7.5,7.5V56h-65v-0.5c0-4.142-3.358-7.5-7.5-7.5s-7.5,3.358-7.5,7.5V88h-41V55.5c0-4.142-3.358-7.5-7.5-7.5
		S88,51.358,88,55.5V88h-8.5c-16.281,0-30.29,9.903-36.328,24H23.5C14.953,112,8,118.953,8,127.5v64c0,8.547,6.953,15.5,15.5,15.5
		h13.729c-0.278,1.032-0.574,2.06-0.893,3.082L7.625,301.957C2.565,318.146,0,334.955,0,351.918V415.5
		c0,10.336,6.71,19.128,16,22.266v9.734c0,8.547,6.953,15.5,15.5,15.5h448c8.547,0,15.5-6.953,15.5-15.5v-9.734
		c9.29-3.138,16-11.93,16-22.266v-80C511,326.953,504.047,320,495.5,320z M496,335.5V352H255.5c-9.098,0-16.5-7.402-16.5-16.5V335
		h256.5C495.776,335,496,335.224,496,335.5z M159,71h65v17h-65V71z M39.5,192h-16c-0.276,0-0.5-0.224-0.5-0.5v-64
		c0-0.276,0.224-0.5,0.5-0.5h16.513c-0.002,0.167-0.013,0.332-0.013,0.5v58.57c0,1.987-0.076,3.969-0.222,5.944
		C39.685,192.011,39.594,192,39.5,192z M479.5,448h-448c-0.276,0-0.5-0.224-0.5-0.5V439h449v8.5C480,447.776,479.776,448,479.5,448z
		 M487.5,424h-464c-4.687,0-8.5-3.813-8.5-8.5v-63.582c0-15.444,2.335-30.748,6.942-45.487l28.711-91.875
		C53.537,205.325,55,195.741,55,186.07V127.5c0-13.509,10.991-24.5,24.5-24.5h344c13.509,0,24.5,10.991,24.5,24.5v96
		c0,4.687-3.813,8.5-8.5,8.5h-80c-4.687,0-8.5-3.813-8.5-8.5v-8c0-21.78-17.72-39.5-39.5-39.5h-80c-21.78,0-39.5,17.72-39.5,39.5v80
		c0,19.216,13.795,35.262,32,38.777v1.223c0,17.369,14.131,31.5,31.5,31.5H496v48.5C496,420.187,492.187,424,487.5,424z"/>
	<path d="M239.5,151h64c4.142,0,7.5-3.358,7.5-7.5s-3.358-7.5-7.5-7.5h-64c-4.142,0-7.5,3.358-7.5,7.5S235.358,151,239.5,151z"/>
	<path d="M166.5,136h-86c-4.687,0-8.5,3.813-8.5,8.5v38c0,4.687,3.813,8.5,8.5,8.5h86c4.687,0,8.5-3.813,8.5-8.5v-38
		C175,139.813,171.187,136,166.5,136z M160,176H87v-25h73V176z"/>
	<path d="M151.5,216c-4.142,0-7.5,3.358-7.5,7.5v8c0,4.142,3.358,7.5,7.5,7.5s7.5-3.358,7.5-7.5v-8
		C159,219.358,155.642,216,151.5,216z"/>
	<path d="M119.5,216c-4.142,0-7.5,3.358-7.5,7.5v8c0,4.142,3.358,7.5,7.5,7.5s7.5-3.358,7.5-7.5v-8
		C127,219.358,123.642,216,119.5,216z"/>
	<path d="M87.5,216c-4.142,0-7.5,3.358-7.5,7.5v8c0,4.142,3.358,7.5,7.5,7.5s7.5-3.358,7.5-7.5v-8C95,219.358,91.642,216,87.5,216z"
		/>
	<path d="M151.5,256c-4.142,0-7.5,3.358-7.5,7.5v8c0,4.142,3.358,7.5,7.5,7.5s7.5-3.358,7.5-7.5v-8
		C159,259.358,155.642,256,151.5,256z"/>
	<path d="M119.5,256c-4.142,0-7.5,3.358-7.5,7.5v8c0,4.142,3.358,7.5,7.5,7.5s7.5-3.358,7.5-7.5v-8
		C127,259.358,123.642,256,119.5,256z"/>
	<path d="M87.5,256c-4.142,0-7.5,3.358-7.5,7.5v8c0,4.142,3.358,7.5,7.5,7.5s7.5-3.358,7.5-7.5v-8C95,259.358,91.642,256,87.5,256z"
		/>
	<path d="M151.5,296c-4.142,0-7.5,3.358-7.5,7.5v8c0,4.142,3.358,7.5,7.5,7.5s7.5-3.358,7.5-7.5v-8
		C159,299.358,155.642,296,151.5,296z"/>
	<path d="M119.5,296c-4.142,0-7.5,3.358-7.5,7.5v8c0,4.142,3.358,7.5,7.5,7.5s7.5-3.358,7.5-7.5v-8
		C127,299.358,123.642,296,119.5,296z"/>
	<path d="M87.5,296c-4.142,0-7.5,3.358-7.5,7.5v8c0,4.142,3.358,7.5,7.5,7.5s7.5-3.358,7.5-7.5v-8C95,299.358,91.642,296,87.5,296z"
		/>
</g>
<g>
</g>
<g>
</g>
<g>
</g>
<g>
</g>
<g>
</g>
<g>
</g>
<g>
</g>
<g>
</g>
<g>
</g>
<g>
</g>
<g>
</g>
<g>
</g>
<g>
</g>
<g>
</g>
<g>
</g>
</svg>
